<svg xmlns="http://www.w3.org/2000/svg" width="128" height="128" fill="none" viewBox="0 0 128 128"><g filter="url(#a)"><rect width="104" height="106" x="4" y="21" fill="url(#b)" rx="8" transform="rotate(-10 4 21)"/></g><g filter="url(#c)"><rect width="104" height="106" x="22" y="3" fill="url(#d)" rx="8" transform="rotate(10 22 3)"/></g><mask id="e" width="104" height="104" x="12" y="12" maskUnits="userSpaceOnUse" style="mask-type:alpha"><rect width="104" height="104" x="12" y="12" fill="#fff" rx="8"/></mask><g mask="url(#e)"><rect width="104" height="104" x="12" y="12" fill="url(#f)" rx="8"/><g filter="url(#g)"><rect width="88" height="72" x="20" y="20" fill="url(#h)" fill-opacity=".66" rx="4"/></g></g><mask id="i" width="116" height="118" x="12" y="10" maskUnits="userSpaceOnUse" style="mask-type:alpha"><g fill="#d9d9d9" opacity=".5"><rect width="8" height="10" x="103" y="101" rx="4"/><rect width="10" height="12" x="102" y="84" rx="5"/><rect width="10" height="12" x="86" y="100" rx="5"/><rect width="12" height="14" x="69" y="99" rx="6"/><rect width="12" height="14" x="85" y="83" rx="6"/><rect width="12" height="14" x="101" y="67" rx="6"/><rect width="14" height="16" x="100" y="50" rx="7"/><rect width="14" height="16" x="84" y="66" rx="7"/><rect width="14" height="16" x="68" y="82" rx="7"/><rect width="14" height="16" x="52" y="98" rx="7"/><path d="M48 110v-4c0-5.523 4.477-10 10-10h4a2 2 0 0 0 2-2v-4c0-5.523 4.477-10 10-10h4a2 2 0 0 0 2-2v-4c0-5.523 4.477-10 10-10h4a2 2 0 0 0 2-2v-4c0-5.523 4.477-10 10-10h4a2 2 0 0 0 2-2v-4c0-5.523 4.477-10 10-10h6V12H12v116h12a8 8 0 0 0 8-8 8 8 0 0 1 8-8h6a2 2 0 0 0 2-2"/></g><rect width="8" height="8" x="103" y="101" fill="#d9d9d9" rx="4"/><rect width="10" height="10" x="102" y="84" fill="#d9d9d9" rx="5"/><rect width="10" height="10" x="86" y="100" fill="#d9d9d9" rx="5"/><rect width="12" height="12" x="69" y="99" fill="#d9d9d9" rx="6"/><rect width="12" height="12" x="85" y="83" fill="#d9d9d9" rx="6"/><rect width="12" height="12" x="101" y="67" fill="#d9d9d9" rx="6"/><rect width="14" height="14" x="100" y="50" fill="#d9d9d9" rx="7"/><rect width="14" height="14" x="84" y="66" fill="#d9d9d9" rx="7"/><rect width="14" height="14" x="68" y="82" fill="#d9d9d9" rx="7"/><rect width="14" height="14" x="52" y="98" fill="#d9d9d9" rx="7"/><path fill="#d9d9d9" d="M48 108v-4c0-5.523 4.477-10 10-10h4a2 2 0 0 0 2-2v-4c0-5.523 4.477-10 10-10h4a2 2 0 0 0 2-2v-4c0-5.523 4.477-10 10-10h4a2 2 0 0 0 2-2v-4c0-5.523 4.477-10 10-10h4a2 2 0 0 0 2-2v-4c0-5.523 4.477-10 10-10h6V10H12v116h12a8 8 0 0 0 8-8 8 8 0 0 1 8-8h6a2 2 0 0 0 2-2"/></mask><g mask="url(#i)"><rect width="104" height="104" x="12" y="12" fill="url(#j)" rx="8"/><rect width="104" height="102" x="12" y="12" fill="#fff" rx="8"/><g filter="url(#k)"><rect width="88" height="72" x="20" y="20" fill="url(#l)" rx="4"/></g><path stroke="#000" stroke-linecap="round" stroke-opacity=".2" stroke-width="2" d="M21 101h56M21 105h32"/></g><defs><linearGradient id="b" x1="56" x2="56" y1="21" y2="127" gradientUnits="userSpaceOnUse"><stop stop-color="#d83faa"/><stop offset="1" stop-color="#ed337d"/></linearGradient><linearGradient id="d" x1="74" x2="74" y1="3" y2="109" gradientUnits="userSpaceOnUse"><stop stop-color="#ffd745"/><stop offset="1" stop-color="#f58063"/></linearGradient><linearGradient id="f" x1="116" x2="116" y1="12" y2="116" gradientUnits="userSpaceOnUse"><stop offset=".228" stop-color="#fff"/><stop offset="1" stop-color="silver"/></linearGradient><linearGradient id="h" x1="20" x2="20" y1="20" y2="92" gradientUnits="userSpaceOnUse"><stop stop-color="#ffdc43"/><stop offset="1" stop-color="#ed337d"/></linearGradient><linearGradient id="j" x1="12" x2="116" y1="116" y2="116" gradientUnits="userSpaceOnUse"><stop stop-color="silver"/><stop offset=".05" stop-color="#e0e0e0"/><stop offset=".1" stop-color="#b0b0b0"/><stop offset=".9" stop-color="#b0b0b0"/></linearGradient><linearGradient id="l" x1="20" x2="20" y1="20" y2="92" gradientUnits="userSpaceOnUse"><stop stop-color="#ffdc43"/><stop offset="1" stop-color="#ed337d"/></linearGradient><filter id="a" width="118.294" height="119.916" x="5.266" y="4.207" color-interpolation-filters="sRGB" filterUnits="userSpaceOnUse"><feFlood flood-opacity="0" result="BackgroundImageFix"/><feBlend in="SourceGraphic" in2="BackgroundImageFix" result="shape"/><feColorMatrix in="SourceAlpha" result="hardAlpha" values="0 0 0 0 0 0 0 0 0 0 0 0 0 0 0 0 0 0 127 0"/><feOffset dy="-2"/><feComposite in2="hardAlpha" k2="-1" k3="1" operator="arithmetic"/><feColorMatrix values="0 0 0 0 0 0 0 0 0 0 0 0 0 0 0 0 0 0 0.25 0"/><feBlend in2="shape" result="effect1_innerShadow_300_105"/></filter><filter id="c" width="118.294" height="119.916" x="4.86" y="4.266" color-interpolation-filters="sRGB" filterUnits="userSpaceOnUse"><feFlood flood-opacity="0" result="BackgroundImageFix"/><feBlend in="SourceGraphic" in2="BackgroundImageFix" result="shape"/><feColorMatrix in="SourceAlpha" result="hardAlpha" values="0 0 0 0 0 0 0 0 0 0 0 0 0 0 0 0 0 0 127 0"/><feOffset dy="-2"/><feComposite in2="hardAlpha" k2="-1" k3="1" operator="arithmetic"/><feColorMatrix values="0 0 0 0 0 0 0 0 0 0 0 0 0 0 0 0 0 0 0.25 0"/><feBlend in2="shape" result="effect1_innerShadow_300_105"/></filter><filter id="g" width="120" height="104" x="4" y="4" color-interpolation-filters="sRGB" filterUnits="userSpaceOnUse"><feFlood flood-opacity="0" result="BackgroundImageFix"/><feBlend in="SourceGraphic" in2="BackgroundImageFix" result="shape"/><feGaussianBlur result="effect1_foregroundBlur_300_105" stdDeviation="8"/></filter><filter id="k" width="88" height="72" x="20" y="20" color-interpolation-filters="sRGB" filterUnits="userSpaceOnUse"><feFlood flood-opacity="0" result="BackgroundImageFix"/><feBlend in="SourceGraphic" in2="BackgroundImageFix" result="shape"/><feColorMatrix in="SourceAlpha" result="hardAlpha" values="0 0 0 0 0 0 0 0 0 0 0 0 0 0 0 0 0 0 127 0"/><feOffset dy="2"/><feComposite in2="hardAlpha" k2="-1" k3="1" operator="arithmetic"/><feColorMatrix values="0 0 0 0 0.815686 0 0 0 0 0.815686 0 0 0 0 0.815686 0 0 0 1 0"/><feBlend in2="shape" result="effect1_innerShadow_300_105"/></filter></defs></svg>