<svg xmlns="http://www.w3.org/2000/svg" viewBox="0 0 32 32" id="picture">
  <rect width="30" height="30" x="1" y="1" fill="#faf7f5" rx="5" ry="5"></rect>
  <path fill="#f0e6e2" d="M28 29H8a5 5 0 0 1-5-5V4a4.9 4.9 0 0 1 .63-2.37A5 5 0 0 0 1 6v20a5 5 0 0 0 5 5h20a5 5 0 0 0 4.37-2.63A4.9 4.9 0 0 1 28 29Z"></path>
  <circle cx="23" cy="9" r="4" fill="#ffcd69"></circle>
  <path fill="#ffc144" d="M21 10a4 4 0 0 1 4-4 4.05 4.05 0 0 1 .7.07A3.94 3.94 0 0 0 23 5a4 4 0 0 0-.7 7.93A4 4 0 0 1 21 10Z"></path>
  <path fill="#80b6ff" d="M23.73 16.25a2 2 0 0 0-1.5-.75 1.93 1.93 0 0 0-1.54.65l-2.74 3-4.51-6.47a2 2 0 0 0-1.64-.85 2 2 0 0 0-1.64.85L1 25.72V26a5 5 0 0 0 5 5h20a5 5 0 0 0 5-5v-.67Z"></path>
  <path fill="#60a4ff" d="M28 29H8a5 5 0 0 1-5-5v-1.12l-2 2.84V26a5 5 0 0 0 5 5h20a5 5 0 0 0 4.37-2.63A4.9 4.9 0 0 1 28 29Z"></path>
</svg>
