<?xml version="1.0" encoding="UTF-8"?>
<svg width="128" height="128" viewBox="0 0 128 128" xmlns="http://www.w3.org/2000/svg">
  <!-- Application icon for Scramble - Image Metadata Remover -->
  <defs>
    <linearGradient id="bgGradient" x1="0%" y1="0%" x2="100%" y2="100%">
      <stop offset="0%" style="stop-color:#3584e4;stop-opacity:1" />
      <stop offset="100%" style="stop-color:#1c71d8;stop-opacity:1" />
    </linearGradient>
    <linearGradient id="imageGradient" x1="0%" y1="0%" x2="100%" y2="100%">
      <stop offset="0%" style="stop-color:#ffffff;stop-opacity:1" />
      <stop offset="100%" style="stop-color:#f6f5f4;stop-opacity:1" />
    </linearGradient>
    
    <!-- Drop shadow filter -->
    <filter id="dropShadow" x="-20%" y="-20%" width="140%" height="140%">
      <feDropShadow dx="2" dy="2" stdDeviation="3" flood-opacity="0.3"/>
    </filter>
  </defs>
  
  <!-- Background circle with gradient -->
  <circle cx="64" cy="64" r="60" fill="url(#bgGradient)" filter="url(#dropShadow)"/>
  <circle cx="64" cy="64" r="60" fill="none" stroke="#1a5fb4" stroke-width="1" opacity="0.5"/>
  
  <!-- Main image frame -->
  <rect x="28" y="32" width="72" height="54" rx="6" fill="url(#imageGradient)" 
        stroke="#babdb6" stroke-width="1.5" filter="url(#dropShadow)"/>
  
  <!-- Inner image area -->
  <rect x="32" y="36" width="64" height="46" rx="3" fill="#f6f5f4" stroke="#d3d7cf" stroke-width="1"/>
  
  <!-- Landscape image content -->
  <defs>
    <linearGradient id="skyGradient" x1="0%" y1="0%" x2="0%" y2="100%">
      <stop offset="0%" style="stop-color:#87ceeb;stop-opacity:1" />
      <stop offset="100%" style="stop-color:#98d1ed;stop-opacity:1" />
    </linearGradient>
  </defs>
  
  <!-- Sky background -->
  <rect x="32" y="36" width="64" height="25" fill="url(#skyGradient)"/>
  
  <!-- Mountains -->
  <polygon points="32,61 45,45 58,55 70,40 85,50 96,35 96,82 32,82" fill="#62a0ea"/>
  <polygon points="45,61 55,50 65,58 75,45 85,52 96,40 96,82 45,82" fill="#3584e4" opacity="0.7"/>
  
  <!-- Sun -->
  <circle cx="80" cy="48" r="5" fill="#f9f06b" stroke="#f8e45c" stroke-width="1"/>
  
  <!-- Clouds -->
  <ellipse cx="50" cy="45" rx="8" ry="4" fill="white" opacity="0.8"/>
  <ellipse cx="75" cy="42" rx="6" ry="3" fill="white" opacity="0.6"/>
  
  <!-- Metadata data being removed/scrambled -->
  <g stroke="#ed333b" stroke-width="2.5" stroke-linecap="round" opacity="0.9">
    <!-- Metadata text lines being scrambled away -->
    <line x1="104" y1="30" x2="118" y2="24" stroke-dasharray="3,2"/>
    <line x1="104" y1="36" x2="120" y2="32" stroke-dasharray="4,3"/>
    <line x1="104" y1="42" x2="116" y2="40" stroke-dasharray="2,2"/>
    <line x1="104" y1="48" x2="118" y2="48" stroke-dasharray="5,2"/>
    <line x1="104" y1="54" x2="115" y2="56" stroke-dasharray="3,3"/>
    
    <!-- Crossing out effect -->
    <line x1="102" y1="28" x2="122" y2="58" stroke-width="3" opacity="0.7"/>
  </g>
  
  <!-- Privacy/security shield indicator -->
  <g fill="#26a269" stroke="#1a7e4c" stroke-width="1" opacity="0.9">
    <path d="M108 62 L118 62 L118 78 L113 82 L108 78 Z" />
    <circle cx="113" cy="68" r="2" fill="white"/>
  </g>
  
  <!-- Clean/checkmark indicator -->
  <g stroke="#26a269" stroke-width="2.5" stroke-linecap="round" opacity="0.8">
    <path d="M110 90 L115 95 L125 85" fill="none"/>
  </g>
</svg>