<svg width="16" height="16" viewBox="0 0 16 16" fill="none" xmlns="http://www.w3.org/2000/svg">
<g clip-path="url(#clip0_327_422)">
<path d="M5.53846 15.0588V14.4314C5.53846 13.565 6.22725 12.8627 7.07692 12.8627H7.69231C7.86224 12.8627 8 12.7223 8 12.549H1.84615C1.50629 12.549 1.23077 12.2681 1.23077 11.9216V1.88235C1.23077 1.53582 1.50629 1.2549 1.84615 1.2549H14.1538C14.4937 1.2549 14.7692 1.53582 14.7692 1.88235V5.33333H15.0769C15.2469 5.33333 15.3846 5.19287 15.3846 5.01961V4.39216C15.3846 3.87896 15.6263 3.42332 16 3.13714V1.2549C16 0.561839 15.449 0 14.7692 0H1.23077C0.551034 0 0 0.561839 0 1.2549V14.7451C0 15.4382 0.551034 16 1.23077 16H3.24158C3.45438 15.6249 3.85213 15.3725 4.30769 15.3725H5.23077C5.4007 15.3725 5.53846 15.2321 5.53846 15.0588Z" fill="white"/>
<path d="M7.23077 13.4902C7.82554 13.4902 8.30769 13.9818 8.30769 14.5882C8.30769 15.1947 7.82554 15.6863 7.23077 15.6863C6.636 15.6863 6.15385 15.1947 6.15385 14.5882C6.15385 13.9818 6.636 13.4902 7.23077 13.4902Z" fill="white"/>
<path d="M9.69231 10.9804C10.2871 10.9804 10.7692 11.472 10.7692 12.0784C10.7692 12.6849 10.2871 13.1765 9.69231 13.1765C9.09754 13.1765 8.61538 12.6849 8.61538 12.0784C8.61538 11.472 9.09754 10.9804 9.69231 10.9804Z" fill="white"/>
<path d="M8 12.549V11.9216C8 11.0552 8.68879 10.3529 9.53846 10.3529H10.1538C10.3238 10.3529 10.4615 10.2125 10.4615 10.0392V9.41177C10.4615 8.54544 11.1503 7.84314 12 7.84314H12.6154C12.7853 7.84314 12.9231 7.70268 12.9231 7.52941V6.90196C12.9231 6.03563 13.6119 5.33333 14.4615 5.33333H14.7692V1.88235C14.7692 1.53582 14.4937 1.2549 14.1538 1.2549H1.84615C1.50629 1.2549 1.23077 1.53582 1.23077 1.88235V11.9216C1.23077 12.2681 1.50629 12.549 1.84615 12.549H8Z" fill="white" fill-opacity="0.5"/>
<path d="M9.69231 13.6471C10.2021 13.6471 10.6154 14.0684 10.6154 14.5882C10.6154 15.108 10.2021 15.5294 9.69231 15.5294C9.18251 15.5294 8.76923 15.108 8.76923 14.5882C8.76923 14.0684 9.18251 13.6471 9.69231 13.6471Z" fill="white"/>
<path d="M12.1538 11.1373C12.6636 11.1373 13.0769 11.5586 13.0769 12.0784C13.0769 12.5982 12.6636 13.0196 12.1538 13.0196C11.644 13.0196 11.2308 12.5982 11.2308 12.0784C11.2308 11.5586 11.644 11.1373 12.1538 11.1373Z" fill="white"/>
<path d="M14.6154 8.62745C15.1252 8.62745 15.5385 9.04883 15.5385 9.56863C15.5385 10.0884 15.1252 10.5098 14.6154 10.5098C14.1056 10.5098 13.6923 10.0884 13.6923 9.56863C13.6923 9.04883 14.1056 8.62745 14.6154 8.62745Z" fill="white"/>
<path d="M12.1538 8.47059C12.7486 8.47059 13.2308 8.9622 13.2308 9.56863C13.2308 10.1751 12.7486 10.6667 12.1538 10.6667C11.5591 10.6667 11.0769 10.1751 11.0769 9.56863C11.0769 8.9622 11.5591 8.47059 12.1538 8.47059Z" fill="white"/>
<path d="M14.6154 5.96078C15.2102 5.96078 15.6923 6.45239 15.6923 7.05882C15.6923 7.66525 15.2102 8.15686 14.6154 8.15686C14.0206 8.15686 13.5385 7.66525 13.5385 7.05882C13.5385 6.45239 14.0206 5.96078 14.6154 5.96078Z" fill="white"/>
<path d="M14.6154 11.2941C15.0402 11.2941 15.3846 11.6453 15.3846 12.0784C15.3846 12.5116 15.0402 12.8627 14.6154 12.8627C14.1906 12.8627 13.8462 12.5116 13.8462 12.0784C13.8462 11.6453 14.1906 11.2941 14.6154 11.2941Z" fill="white"/>
<path d="M14.6154 13.9608C14.9553 13.9608 15.2308 14.2417 15.2308 14.5882C15.2308 14.9348 14.9553 15.2157 14.6154 15.2157C14.2755 15.2157 14 14.9348 14 14.5882C14 14.2417 14.2755 13.9608 14.6154 13.9608Z" fill="white"/>
<path d="M12.1538 13.8039C12.5787 13.8039 12.9231 14.1551 12.9231 14.5882C12.9231 15.0214 12.5787 15.3725 12.1538 15.3725C11.729 15.3725 11.3846 15.0214 11.3846 14.5882C11.3846 14.1551 11.729 13.8039 12.1538 13.8039Z" fill="white"/>
</g>
<defs>
<clipPath id="clip0_327_422">
<rect width="16" height="16" fill="white"/>
</clipPath>
</defs>
</svg>
